<svg xmlns="http://www.w3.org/2000/svg" viewBox="0 0 670.96 999.04"><defs><style>.cls-1{fill:#b69234;}.cls-2{fill:#226d81;}.cls-3{fill:#fefefe;}</style></defs><g id="Layer_2" data-name="Layer 2"><g id="Layer_1-2" data-name="Layer 1"><path class="cls-1" d="M495.38,490.69c-4.42-18.38-12.2-35.48-21.4-51.92A320.49,320.49,0,0,0,437.6,387c-1.59-1.86-2.94-5.73-5.5-4.84-3.39,1.19-.36,4.68-.7,7.14,0,.32,0,.66,0,1-.7,21.64,1.38,43.24,1,64.88a15.06,15.06,0,0,0,3.2,9.71c10.43,13.92,18.72,29.1,25.94,44.85,3.87,8.45,7.2,17.15,10.6,25.81.48,1.21,1.6,3.37.12,4.09-2,1-2.43-1.34-3.27-2.73A101.49,101.49,0,0,0,455,519.42c-16.23-17.06-36.23-29.66-53.7-45.26-12.56-11.21-23.07-23.83-29.53-39.62-2.89-7.08-3.32-14.68-5.31-22.8-4.27,6.18-6.4,12.46-9.17,18.4C347.55,451.09,345,472.37,355,494a8.82,8.82,0,0,1-.15,8c-3.78,8.34-6.32,17.14-9.58,25.66-3.6,9.41-3.1,18.5.38,27.68q2.56,6.75,5.16,13.49c3,3.26,4.89,7.21,6.64,11.22.78,1.13,2.21,2.53.43,3.53-1.1.61-1.68-1-1.88-2.11-.25-.25-.5-.5-.74-.76l-.7-.78c-.46-.53-.89-1.08-1.31-1.63s-.88-1.25-1.27-1.9c-.18-.29-.36-.59-.53-.89s-.38-.7-.55-1.06c-.09-.18-.18-.36-.26-.54s-.17-.36-.25-.54-.25-.58-.37-.87a3.42,3.42,0,0,1-.13-.34c-.12-.3-.23-.59-.33-.9s-.26-.76-.38-1.15c-3.21-4.92-5.1-10.43-7.05-15.91-.34-.94-.76-2.06-1.95-1.9s-1.48,1.24-1.57,2.28c-1,11-3.18,22-1.21,33.19,3.75,21.45,14.79,38.37,30.59,52.8,11.83,10.82,25.67,18.27,39.85,25.3,1.28.63,3.19.85,3.3,2.63s-1.65,2.75-3.05,3.59a145.66,145.66,0,0,1-37.93,16.12c-19.31,5.07-38.86,7.9-59,6.22-14.31-1.19-28.4-3.2-42-7.71a179.14,179.14,0,0,1-63-36.25A172.47,172.47,0,0,1,171.08,608c-17.16-29.55-25.46-61.52-23.94-95.87.17-3.7,1.17-5.62,4.81-6.93a12.27,12.27,0,0,0,8-13.87c-1.5-6.65-6.05-10.42-12.72-10.57a12.75,12.75,0,0,0-11.82,8.4c-2.07,6.15-.19,12.27,5.6,15.49,3.6,2,5.29,4.52,4.69,8.38-1.15,7.46-.42,14.86-.17,22.33a144.84,144.84,0,0,0,6.1,36.2,177.14,177.14,0,0,0,46.81,77.77,180.41,180.41,0,0,0,51.24,35.43,173.68,173.68,0,0,0,64.81,16.06c19.45.87,38.73-.7,57.67-5.94,37.47-10.36,68.11-30.8,92.39-61.11,12.11-15.11,20.84-32,27.26-50.15,4.6-13,8.33-26.3,9.21-40.15C502.1,525.59,499.54,508,495.38,490.69ZM360.25,587.45a2.05,2.05,0,0,1-1.8-2.44c0-.66.42-1.17,1.26-1a2.07,2.07,0,0,1,1.57,2.13C361.25,586.88,361,587.55,360.25,587.45Zm101.33,38.71c-9-3-18.06-5.77-26.78-9.4-15.67-6.52-30.71-14.33-43.6-25.62C369.28,572,357.71,552,356.75,522.92c.48-3.53,1.13-8.79,1.94-14,.23-1.48-.63-3.73,1.69-4.12,1.66-.28,2.49,1.4,3.38,2.58a171.11,171.11,0,0,0,12.9,14.54c14.63,15.37,32.13,27.25,48.62,40.37,16.27,13,31.17,27.08,38.47,47.3a46.07,46.07,0,0,1,3.1,12.51C467.15,626.5,465.2,627.39,461.58,626.16Z"/><path class="cls-1" d="M535.89,485.06c-1.26,16.88-6.33,32.86-13.26,48.29a142.76,142.76,0,0,1-10.27,19.58c-.43-.69-.91-1.12-.83-1.41,3.49-13.76,2.73-27.83,1.53-41.61a175.53,175.53,0,0,0-12.68-51.55c-13.16-32.07-32.69-59.93-55.28-86-16.45-19-34-36.87-51.26-55.07-20.47-21.6-40.87-43.31-58.2-67.56-18.88-26.43-31.56-55.86-38.74-87.48-2.08-9.2-4.41-18.67-2.92-29.53,2.66,4.63,3.23,8.91,4,12.87,2.8,14.29,7.88,27.77,13.43,41.12a7.63,7.63,0,0,0,1.56,1.83c2.4,8.83,6.69,16.79,11.42,24.54.64.7,1.38,1.58,2.25.54.65-.78-.09-1.38-.86-1.73l-11.34-24.78c-7.8-21.34-15-42.83-18.7-65.38-2.08-12.63.17-24.8,3.12-36.81,3.85-15.66,8.58-31.12,16.31-45.4,10-18.46,24.15-32.43,45.07-37.33,23.15-5.42,44.5-1.13,62.73,15,15.86,14,22.42,32,22,52.83-.07,3.93.06,7.31,4.14,9.83,4.83,3,6.24,9.92,3.86,14.65-3.14,6.21-9.19,8.9-15.85,7a12.42,12.42,0,0,1-8.74-13.44,12,12,0,0,1,11.16-10.77c2.73-.2,3.81-1.18,3.88-3.91,1-35.1-20.95-62.61-55.54-68.39C356.48-.23,322,21.76,316.06,59.4c-3.29,21-.6,41.21,4.9,61.45,10.43,38.38,30.89,71.12,56,101.35,14.14,17,29.66,32.78,44.77,48.92,19.43,20.74,39.39,41,57.2,63.21C495.86,355.42,510.49,378,521.08,403,532.2,429.21,538,456.48,535.89,485.06Z"/><path class="cls-2" d="M335.65,386.42c-6.1-14.33-14.25-27.39-23.38-39.9-11.57-15.83-24.53-30.61-35.43-46.94-18.23-27.34-30.9-56.17-24.19-90.71q-7.46,12-14.92,23.91c-11,17.52-15.49,36.53-12.88,57.09.3,2.4-.36,6.85,5,4.4,1.59-.73,3,1,4.25,2.13,17.71,16.41,34.78,33.36,47.88,53.9,10.34,16.2,16.51,33.36,12.36,52.85a9.67,9.67,0,0,0,1.33,8c11.59,17.62,19.19,36.72,21.53,57.8a63.4,63.4,0,0,1-2,26.14c-.36,1.15-.52,3-2.17,3-1.84,0-2.16-1.73-2.69-3.1-1-2.63-2-5.29-3.1-7.89-7.56-17.74-18.57-33.32-30.32-48.45-4.55-5.86-4.37-5.84.12-11.59,9.35-12,16-25,13.93-40.82-2.07-16.1-9.45-29.95-18.73-42.93-9.64-13.47-21.32-25-33.33-36.33-9.23-8.68-9-8.78-15.27,2.19-1.6,2.81-1.27,4.6,1.44,6.11a41,41,0,0,1,10.35,8.51c.74.82,2,1.73,1,2.92s-2.18,0-3-.61c-3.27-2.55-6.46-5.21-9.68-7.82-2.63-2.12-4.56-2-6.3,1.32-3.43,6.45-7.16,12.75-10.77,19.1-10.19,17.9-13.21,37-9.34,57.18,3.74,19.42,12.66,36.65,23.55,52.9,9.44,14.09,20,27.4,30.3,40.84,13,16.91,25.25,34.27,31.89,54.88.45,1.38.43,3.37,2.12,3.71,2.16.44,2.45-1.86,3.25-3.15,15-24.15,29.11-48.77,43.11-73.48C347.18,443.75,348,415.53,335.65,386.42ZM242,331.53a3.27,3.27,0,0,1,1,.6c.53,1.22-.19,1.45-.47,1.46-.64,0-1-.44-1.19-1.11A.73.73,0,0,1,242,331.53Zm26.76,89.88c-.07,1.21-.24,2.53-1.33,3.07-1.64.8-2.39-.81-3.12-1.77-17.15-22.34-33.75-45-39.53-73.45a32.74,32.74,0,0,1-.8-3.89c-.14-1.64,0-3.3,0-5.33a10.56,10.56,0,0,1,5.14,3.11c15,14.42,27.54,30.55,35.64,49.91C268.58,402.2,269.37,411.69,268.79,421.41Z"/><path class="cls-2" d="M246.76,654.77c-.11-.55-.38-1-.26-1.42,8-26,1.1-49.78-10.26-73-8.17-16.71-19.4-31.31-30.86-45.78-12.6-15.91-24.72-32.16-34.3-50.14-9.93-18.64-16.18-38.21-14.31-59.68.38-4.4,1.09-8.81,3.73-13,.89,5.55,1.66,11.11,2.7,16.63a151.67,151.67,0,0,0,10.35,34.22,29.13,29.13,0,0,0,1.32,2.69c.59,1,1.37,2.37,2.61,1.79,1.41-.67.49-2,0-3a171.87,171.87,0,0,1-8.85-25.42c-3.71-13.11-4.4-26.51-3.91-40,.11-3.2,2.24-5.51,3.73-8.06q6.78-11.61,13.91-23c.79-1.26,1.23-3.17,3.58-3.44.64,4.29-1.58,8.06-1.86,12.13-1.87,26.39,6.49,49.61,20.68,71.39,12.64,19.41,27.7,37,41.3,55.63,14,19.27,25.19,39.8,29.47,63.64,2.83,15.75.56,30.7-5.31,45.35A228.41,228.41,0,0,1,250,651C249.12,652.32,248.59,654,246.76,654.77Z"/><path class="cls-1" d="M374.22,391.24c-1.71.83-2.59-1.11-3.52-2.11C346.08,362.6,319.76,337.5,299.77,307c-17.26-26.35-30.65-54.41-36.24-85.74-1.39-7.79-2.23-15.6-1.4-23.6,5,16.67,8.53,33.78,16.06,49.57a18.06,18.06,0,0,0,.74,3.86q2.18,5.05,4.58,10,1.61,3.3,3.32,6.54t3.54,6.42c.62,1.06,1.23,2.11,1.86,3.16a7.84,7.84,0,0,0,1.7,3.51,4.32,4.32,0,0,0,.5.45,5,5,0,0,0,.59.39h0c.41,1.68.78,3.39,3.12,4.26a6.15,6.15,0,0,0-1.66-5.69c-.39-1.72-.93-3.35-2.66-4.22-2.49-8.5-7.65-15.82-10.69-24.08-.77-2.1-.89-4.67-3.29-5.91-2.27-7.12-4.36-14.3-6.84-21.34-5.16-14.62-8.1-29.76-10.3-45-1.3-9,1.65-17.84,4.06-26.43,4.51-16,11.26-31.27,18-46.5a4.52,4.52,0,0,1,2.72-3c-4.27,14-4.85,27.8-4.29,41.71A183.47,183.47,0,0,0,300,215.5c14.19,30.79,33.62,58,56.18,83.1,4.68,5.21,9.52,10.23,14.46,15.17a11,11,0,0,1,3.45,8.45c-.13,8.66-.08,17.32.08,26,.24,13,.65,25.92.94,38.89C375.13,388.53,375.79,390.47,374.22,391.24Z"/><path class="cls-2" d="M367.89,26.41c8.55,3.91,15.79,9.68,23.25,15.07a84.85,84.85,0,0,1,14.11,13.35c7.16,8.26,8.74,18.41,9.7,28.78,2.73,29.32,4.27,58.69,5.21,88.13.77,23.93,1.87,47.85,1.91,71.8,0,4.8,1.41,9.54.94,14.39-.1,1,.26,2.23-.73,2.75s-1.71-.51-2.39-1.23q-19.35-20.5-38.71-41c-1.71-1.81-2.12-4-2.17-6.41-.44-20-1-39.94-1.47-59.91-.67-26.62-.92-53.26-2.16-79.85C374.66,56.92,373.07,41.5,367.89,26.41Z"/><path class="cls-2" d="M670.49,820.46c-.47-10.57-5.11-15-15.19-17.32-7.65-1.72-14.8.14-22.08,1.54-2.39.46-4.85,1.38-3.49,4.63,1.12,2.67,1.29,6.71,6.18,5.09a26.66,26.66,0,0,1,10.78-1.59c4.24.4,6.81,2.16,6.68,6.9-.16,5.66-.19,11.34,0,17,.12,3.47-1.16,4.72-4.63,4.65-9-.16-18-.18-27,0-3.63.08-5.09-1-5-4.79,0-2.42-.88-4.88-1.56-7.27-2.79-9.8-10.38-15.7-20.4-16-10.94-.28-18.93,4.95-22.24,14.89a48.55,48.55,0,0,0-2,9.72c-.29,2.6-1.48,3.41-3.88,3.36-3.83-.08-7.66,0-11.49,0-7.8,0-11.58-3.39-12.15-11.17a30.37,30.37,0,0,1,1-10.86c1.44-4.95,4.12-7.59,9.4-6.49,4.46.93,4.24-2.81,5.19-5.12,1.09-2.66-.86-4.11-3.05-4.79-9.89-3.07-20.57-.5-25.75,9.16-4.19,7.81-4.3,16-2.3,24.19,1,4.13,0,5.34-4.13,5.13-5-.26-10-.11-15-.05-4.34.06-6.45-2-6.42-6.35.05-7,0-14,0-21,0-11.89,0-11.73-11.9-11.76-4.49,0-5.75,1.78-5.66,6,.21,9.5,0,19,.12,28.49.06,3.46-1.17,4.8-4.65,4.67-5.15-.19-10.33-.26-15.47,0-4,.21-5.64-1.06-5.5-5.33.29-8.49-.15-17,.19-25.48.16-4-1.47-5.66-5-6.64a55.94,55.94,0,0,0-15.77-1.63c-12.93.2-21.09,6.8-24.19,19.43a36.76,36.76,0,0,0-.48,11.91c1,11.46,9.55,19.15,21,19.18,9.49,0,19,.05,28.47,0,6.15,0,12.58.85,18.38-.64,7.21-1.84,13.83-3.3,20.83.27,1.48.76,3.6.37,5.42.37,20.15,0,40.29.08,60.44,0a9,9,0,0,1,8,3.69c9.36,11.43,26.11,11.22,35.45-.27a8.25,8.25,0,0,1,7.23-3.41c7.65.17,15.31.06,23,.06,8.16,0,16.32-.07,24.48,0,2.84,0,4.4-.78,4.37-3.91C670.55,839.44,670.92,829.93,670.49,820.46Zm-232.87,21c-3.91-.57-6.43-2.87-6.78-6.81a62.65,62.65,0,0,1,0-14.42c.36-2.52,1.19-4.88,3.29-6.5,1.91-1.47,4.13-2.44,6.5-1.66,2.72.9,2.07,3.46,2.13,5.54.08,3.15,0,6.31,0,9.47,0,3.32-.2,6.66.06,10C443.11,841.12,440.93,841.94,437.62,841.45Zm160.61,8.46c-1,1.82-2.17,3.39-4.43,3.52a4.53,4.53,0,0,1-4.53-3.3,35.73,35.73,0,0,1-.36-22.35,5.19,5.19,0,0,1,5.15-4c2.42.06,3.44,2.23,4.45,4.17,1.8,3.45.84,7.16,1.18,10.48C599.54,842.49,600.16,846.35,598.23,849.91Z"/><path class="cls-2" d="M380.53,376.6q0-29.24,0-58.45c0-1.27-.6-3,.81-3.67,1.73-.8,2.57,1,3.56,2,11.71,12.27,23.31,24.64,35.15,36.78,3.48,3.56,5.3,7.22,5.06,12.36-.4,8.47.08,17-.17,25.47-.38,12.65,2,25.22,1,37.85-1.27,16.27-.88,32.56-1,48.84,0,1.51.15,3.19-1.31,4.08-1.85,1.14-3.17-.47-4.4-1.41-11.85-9.17-23.19-18.89-32.79-30.5a23.69,23.69,0,0,1-5.92-15.94c.18-19.15.07-38.3.07-57.45Z"/><path class="cls-2" d="M670.88,905.11c0-5-1.52-5.8-6-3.83-2.85,1.24-2.57,3.53-2.57,5.86,0,18-.1,36,.08,54,0,3.92-1.12,5.38-5.12,5.16a146.87,146.87,0,0,0-16,0c-4.15.23-5.45-1.25-5.41-5.4.19-18.66.1-37.32.07-56,0-4.78-1.27-5.44-5.74-3.74-2.89,1.1-2.88,3.24-2.88,5.65,0,18-.09,36,.08,54,0,4-1,5.92-5.3,5.44a202.3,202.3,0,0,0-26.85-1.06c-3.28.07-3.91-1.17-1.76-3.8,4.22-5.13,8.29-10.37,12.54-15.47,1.41-1.69,2.52-3.07.58-5.1-5.22-5.45-10.69-10.5-18.29-12.46-13.56-3.5-24.35.9-33.45,11.14-2.63,3-2.52,5-.19,7.65,3.91,4.52,7.71,9.14,11.55,13.72.77.92,1.48,1.91,1,3.15-.51,1.43-1.9,1.14-3,1.16-7.63.16-15.24.08-22.87.9-7.06.77-7.38,0-7.39-7q0-27,0-54c0-5-1.5-5.82-6-3.86-2.85,1.23-2.6,3.52-2.6,5.85,0,18-.09,36,.09,54,0,3.91-1.09,5.46-5.1,5.17a99.75,99.75,0,0,0-12,0c-3.23.15-4.16-1.13-4.44-4.33-.89-10.21-1.06-20.49-2.84-30.63-.42-2.36-1.43-3.42-3.57-3-11.52,2.26-22.86,5.09-30.87,14.66-7.88,9.41-5.17,24.87,5.38,28.8,5.52,2,11.67,2.08,17.65,2.12,5.14,0,5.92,1.31,3.65,6-3.06,6.31-8.34,9.79-15,11.23-2.24.48-3.32,1.35-2.52,3.73.69,2.06,1.1,4.6,4.12,3.92,9.26-2.1,17.14-6.15,21.34-15.42,1.44-3.17.58-7.4,3.39-9.64,3.21-2.54,7,.33,10.63.26,15-.28,30-.11,45-.12a115.61,115.61,0,0,0,13.9-.75c2.4-.28,4.13-2.76,7-1.46a28.61,28.61,0,0,0,12,2.23H628.6c12.49,0,25-.12,37.47.07,3.69,0,4.92-1.09,4.89-4.84C670.81,947.77,670.9,926.44,670.88,905.11ZM490,966.44c-3.62-.4-7.29.33-10.91-.62-6.93-1.83-10.24-8.5-7.4-15.15,2.48-5.79,13.44-12.94,19.7-12.93,2.55,0,3,1.82,3.13,3.67.45,5.45.76,10.92,1.08,15.69a33.2,33.2,0,0,0,0,3.69C496.18,965.17,494.38,966.93,490,966.44Zm86.95-3.8c-3.93-5.55-8.3-10.8-12.67-16-2-2.45-1.87-4.34.35-6.44.25-.24.51-.47.76-.69a20,20,0,0,1,1.58-1.24,17.87,17.87,0,0,1,1.63-1c.24-.14.47-.26.71-.38a2.31,2.31,0,0,1,.35-.18l.36-.17.75-.33.25-.1.61-.23.65-.22a5.7,5.7,0,0,1,.55-.16l.37-.1a13.55,13.55,0,0,1,1.56-.35l.85-.14.59-.07.6-.06.93-.06c.79,0,1.59,0,2.4,0a21,21,0,0,1,3.64,0l1,.12c.33,0,.65.1,1,.17s.52.1.78.17.58.14.87.23l.4.12.4.13.64.23a15.18,15.18,0,0,1,1.56.66c.27.12.53.26.79.4a15.6,15.6,0,0,1,1.36.8c.19.12.38.24.56.37a23.74,23.74,0,0,1,3,2.35c1.88,1.75,2.3,3.44.51,5.58-4.57,5.48-9.06,11-13.55,16.57C580.93,965.11,579.33,966,576.92,962.64Z"/><path class="cls-2" d="M218.06,812.09c-.12-10.33-6.79-17.18-17-17.76a55,55,0,0,0-20.21,2.15c-1.8.58-5.16.64-3.44,3.91,1.27,2.42.48,7.58,6.06,5.7a31.45,31.45,0,0,1,11.82-1.33c3.1.17,5.32,1.74,5.39,4.79.21,9.65.1,19.31.06,29,0,2.14-1.43,2.76-3.34,2.76s-3.14-.86-3.15-2.95c0-2.5.07-5-.05-7.5-.44-9-6.78-16.74-14.21-17.5-10.4-1.07-16.56,3.26-19.62,13.49a23.57,23.57,0,0,0-.55,8.9c.37,4.43-1.27,5.68-5.66,5.66-38.11-.15-76.22-.08-114.34-.09-5.71,0-7.38-1.63-7.45-7.43-.09-6.83,0-13.66,0-20.48,0-11.22,0-11.06-11.46-11.18-3.93,0-5.2,1.09-5.14,5.1.23,14.15.1,28.31.09,42.47,0,8.9-1.85,11.13-10.63,12.48-1.4.22-2.51.42-3.26,1.78-3.74,6.75-2,9.73,5.61,9.76,1.83,0,3.67.07,5.49,0,10.39-.49,18.72-7.21,19.16-16.12.2-4.06,1.55-4.95,5.37-4.94,29.12.15,58.25.09,87.38.09,29.29,0,58.58-.07,87.87.09,4.12,0,5.49-1.11,5.4-5.33C217.93,835.74,218.2,823.91,218.06,812.09Zm-38.4,29.11c-4.55,2-7.72-.18-7.63-5.25.06-3.44-.75-7,.84-10.29.93-1.93,1.68-4.25,4.42-3.95,2.33.25,3,2.24,3.65,4.21a23,23,0,0,1,.91,8.51C181.46,836.34,183.09,839.69,179.66,841.2Z"/><path class="cls-2" d="M351.14,834.26c-.37-7.65-.07-15.32-.07-23,0-7,.06-14,0-21-.13-11.58,1.72-9.82-10.07-9.94-7.25-.08-7.26,0-7.26,7.19q0,23.22,0,46.45c0,6.74-.61,7.29-7.51,7.3-2.33,0-4.67-.19-7,0-3.9.38-5.14-1.15-5.25-5.09-.23-8.2-3.11-15.56-10.53-19.79-14.77-8.42-31.6-.31-34.71,16.33-.51,2.69,1.33,6.47-1.47,7.87-2.43,1.22-5.84.6-8.82.62-8.33.05-9.3-1-9.3-9.58,0-13.82.07-27.64,0-41.46-.06-11.57,1.73-9.76-10.11-9.88-6.08-.06-6.34.27-6.35,6.6q0,24.48,0,49c0,8.56,4,13.67,12.26,15.92,7,1.9,14.23.75,21.35.9,3.07.06,5.11.81,7.06,3.46,8.46,11.48,27.49,11.42,35.87,0,1.75-2.39,3.65-3.53,6.65-3.44a165.41,165.41,0,0,0,17,0C344.5,851.85,351.76,847.34,351.14,834.26ZM297.44,838c-.07,4.58,0,8.26-1.52,11.68-.84,1.88-2.08,3.53-4.34,3.67a4.66,4.66,0,0,1-4.62-3.22c-3.18-7.73-2.7-15.54.22-23.21.7-1.83,2.27-3.5,4.6-3.12,2.6.41,4,2.52,4.62,4.76A30.43,30.43,0,0,1,297.44,838Z"/><path class="cls-2" d="M168.35,927.61c-2.63.7-3.84,1.91-3.78,4.86.17,9.49,0,19,.11,28.48.06,3.87-1.46,5.37-5.32,5.31-10.16-.15-20.32-.2-30.47,0-4.52.09-5.73-1.89-5.65-6,.18-9.66,0-19.33.1-29,0-4-1.6-4.45-5-3.32-2.52.84-2.71,2.47-2.7,4.61,0,9.33-.17,18.67.11,28,.13,4.28-1.05,5.78-5.56,5.8-10.31,0-20.52-1.4-30.85-1.28-8.31.09-16.55,1-24.84,1.24-3.87.12-5.33-1-5.23-5.07.24-9.83,0-19.66.1-29.49,0-2.57-.14-5-3.6-4.43-10.67,1.81-21.3,3.87-30.34,10.4-8.88,6.42-11.36,16.59-6.76,26.55,2.05,4.44,5.51,7.61,10.08,8.1,6.65.71,13.6,2.09,20-1.47,1.7-.94,3.14-1.12,4.39.5,1.87,2.43,4.43,2.52,7.18,2.51,19.32-.06,38.63,0,57.94,0q29.48,0,58.94,0c2.22,0,5,.72,5-3q0-20.25,0-40.48C172.25,927.62,170.93,926.92,168.35,927.61ZM31.85,966.39c-5.86,0-11.89.44-15.1-6.1-3.32-6.77-.73-13.6,7.06-18.47,4.15-2.59,8.8-3.86,13.51-4.94,2.29-.53,4,0,4.08,2.77.2,5.44.44,10.88.48,16.33C42,966.38,41.88,966.39,31.85,966.39Z"/><path class="cls-2" d="M284.19,937.28c0,10.66-.1,21.33.06,32,.05,3.43-1,4.69-4.56,4.67-20-.14-39.95,0-59.93-.13-3,0-5.9-.71-8.87-.91-2.72-.19-4.11,1.05-4.7,3.94-2.54,12.42-10.51,20-22.81,21.89-2,.31-4.56.9-6-1.28-1.79-2.72-.29-4.41,2.36-5.22a33.51,33.51,0,0,0,10-4.48,19.91,19.91,0,0,0,8.85-17c-.12-12.61-.3-25.22-2.87-37.64-.85-4.07,1.3-6.06,4.94-6.46,3.8-.42,3.34,2.62,3.61,5.06,1.13,10,2.33,20.09,2,30.24-.08,2.84,1.38,4.29,4.29,4.28,7.5,0,15-.06,22.48,0,3.54,0,4.59-1.84,4.57-5-.07-9.5,0-19,0-28.49,0-2.39.33-4,3-4.88,3.36-1.05,4.66-.23,4.64,3.3-.07,10.16.08,20.32-.08,30.48-.05,3.44,1.09,4.76,4.6,4.67,7-.19,14-.21,21,0,3.69.12,4.92-1.16,4.89-4.87-.14-18-.07-36-.05-54,0-1.78-.57-3.86,1.09-5.17s3.84-2.39,6-1.74c2.33.71,1.53,3.05,1.54,4.77C284.22,916,284.2,926.62,284.19,937.28Z"/><path class="cls-2" d="M445.12,933.94c-3.72-6.6-8.23-6.93-13.45-1.38a87.67,87.67,0,0,0-13.43,18.52c-1.54,2.87-3.44,4.33-7,4.3-6.68,0-10.45,3.94-10.65,10.57-.14,4.83,0,9.66,0,14.49,0,4.16,0,8.33,0,12.49,0,2.91-.85,6,4.13,6.05,4.75,0,4.46-2.65,4.42-5.81-.07-6.66,0-13.32,0-20,0-8.22,2.55-10,10.06-6.72s15.15,6.79,22.63,10.4c3.48,1.68,6.09,1,8.24-2a15.23,15.23,0,0,0,3.09-6.74C454.78,955.72,451.08,944.51,445.12,933.94Zm-3.34,33.34c-5.86-1.86-11.53-4.09-16.5-7.86-2.07-1.57-2.33-3-.86-5.39a100,100,0,0,1,8-11.34c3.56-4.38,6.66-4,8.82,1.11,2.76,6.47,3.11,13.47,4.33,20C445.81,966.91,444.68,968.21,441.78,967.28Z"/><path class="cls-2" d="M360.13,962.61c.82-10.17-1.32-20.15-2-30.23-.25-3.52-2.27-4.68-5.4-4a65.26,65.26,0,0,0-11,2.94c-7.82,3.19-15.71,6.32-20.39,14.26-7.49,12.69-.67,26.08,13.86,27.43,4.29.4,8.55.87,12.86.86,3.45,0,3.79,1.57,2.69,4.49-2.76,7.29-8.58,10.67-15.57,12.65-1.72.49-4,.3-2.82,3.25.89,2.25,1.07,5,4.8,4.37,13.78-2.37,24.08-14.52,23.07-27C359.92,968.62,360.13,965.61,360.13,962.61Zm-20.47,3.81c-5,0-9-1.49-11.45-6.28s-.9-9.14,2-13c4.23-5.66,10.72-7.61,17.16-9.36,1.9-.52,2.91.61,3.36,2.66a48.89,48.89,0,0,1,1,12.45C351.7,966.43,351.7,966.38,339.66,966.42Z"/><path class="cls-2" d="M366.55,816.45c0-10.5.11-21-.06-31.5-.06-3.43.95-4.75,4.53-4.64,13.23.4,13.1-2.39,13,12.76-.08,18.16-.14,36.33.07,54.49.05,4.21-1.27,5.4-5.39,5.35-12.18-.17-12.18,0-12.18-12Z"/><path class="cls-2" d="M306.16,936.48c0,10.67-.08,21.33,0,32,0,3.17-.88,4.51-4.25,4.47-3.09,0-4.51-.8-4.49-4.22.12-20.83.16-41.65,0-62.48,0-4.5,2.84-5.36,5.94-5.85s2.78,2.09,2.78,4.11Q306.18,920.49,306.16,936.48Z"/><path class="cls-2" d="M494.53,873.78c-3.92-.12-7.25-3.37-7-6.88.19-3.16,3.8-5.92,7.62-5.56,3.56.33,6.53,1.8,6.74,5.89C502,870.79,498.38,873.9,494.53,873.78Z"/><path class="cls-2" d="M428.66,793.82c-4.31.26-6.5-2.13-6.93-6.08-.35-3.15,4-6.92,7.62-6.16,3.08.65,6.62,1.71,6.64,6.12C436,791.61,433.32,793.85,428.66,793.82Z"/><path class="cls-2" d="M641.36,867.21c.17-3.33,3.65-6.15,7.26-5.88,4,.29,7.26,3.54,7,6.89-.24,3.11-4,5.84-7.69,5.57C644,873.49,641.18,870.65,641.36,867.21Z"/><path class="cls-2" d="M475.06,873.78c-3.74-.13-6.84-3.18-6.59-6.64.31-4.38,3.07-5.93,7.09-5.84,4.48.1,6.6,2.21,6.4,6.33C481.78,871.5,479.07,873.91,475.06,873.78Z"/><path class="cls-2" d="M448.49,793.84c-4.28.1-7.05-1.23-7-5.85,0-3.78,3.07-6.62,7.13-6.65,3.2,0,7,3.55,6.71,6.72C455,792.3,452.38,794.09,448.49,793.84Z"/><path class="cls-2" d="M238.29,912.47c-.52,3.86-2.43,5.52-6,5.43-3.88-.1-5.86-2-5.63-5.82.22-3.68,2.33-6,6-5.71S237.88,909.32,238.29,912.47Z"/><path class="cls-2" d="M256.28,910.67c-.15,5.26-1.93,7.17-5.87,7.24s-5.63-2.24-5.61-5.47a5.81,5.81,0,0,1,6-6C254.09,906.41,256.42,908.33,256.28,910.67Z"/><path class="cls-2" d="M110,994.84c-4.16.43-6.15-2-6.05-5.52s2.49-5.28,6.4-5.2c4.09.09,5,2.07,5,5.64C115.39,993.7,113.71,995.26,110,994.84Z"/><path class="cls-2" d="M153.67,989.12c-.26-4.47,2.39-4.9,5.76-5,3.87,0,5.67,2.25,5.62,5.43-.05,3.53-2.23,5.6-6.22,5.3S153,992.92,153.67,989.12Z"/><path class="cls-2" d="M127.7,984.19c4.43,0,6.72,1.64,6.56,5.64-.15,3.76-2.46,5.12-6,5s-5.62-1.81-5.56-5.48S124.44,983.74,127.7,984.19Z"/><path class="cls-2" d="M26.34,915.62l-1.21,1.22-7.13,0-.21-.19c.19-1.27-.47-1.8-1.64-1.87-.58-2.83-.34-5.43,2.18-7.33,3-2.27,5.43-.22,7.92,1.17Z"/><path class="cls-2" d="M35.76,908.52l1.3-1.21,6.45.3a.66.66,0,0,1,.47.47,4.1,4.1,0,0,0,1.52,3.27,1.47,1.47,0,0,1,0,2.41c-2.21,3.44-5.57,3.17-9,2.75a.59.59,0,0,1-.43-.43Z"/><path class="cls-1" d="M36.52,916.51c3.4.42,6.76.69,9-2.75C43.61,918.47,41,919.27,36.52,916.51Z"/><path class="cls-1" d="M35.76,908.52l.33,7.56C33.65,913.66,34,911.12,35.76,908.52Z"/><path class="cls-1" d="M26.34,915.62l-.09-7C28.38,910.92,28.23,913.26,26.34,915.62Z"/><path class="cls-1" d="M18,916.82l7.13,0C22.75,918.73,20.37,918.79,18,916.82Z"/><path class="cls-1" d="M43.51,907.61l-6.45-.3C39.31,905.27,41.46,905.34,43.51,907.61Z"/><path class="cls-1" d="M45.5,911.35A4.1,4.1,0,0,1,44,908.08C45.64,908.63,45.17,910.18,45.5,911.35Z"/><path class="cls-1" d="M16.15,914.76c1.17.07,1.83.6,1.64,1.87C17,916.19,16.25,915.77,16.15,914.76Z"/><path class="cls-3" d="M353.23,578.35c.42.55.85,1.1,1.31,1.63C354.07,579.45,353.64,578.9,353.23,578.35Z"/><path class="cls-3" d="M356,581.52h0c-.25-.25-.5-.51-.73-.77C355.48,581,355.73,581.27,356,581.52Z"/><path class="cls-3" d="M292.23,277.2h0c-.63-1-1.25-2.11-1.85-3.17C291,275.1,291.6,276.15,292.23,277.2Z"/></g></g></svg>