{
	"asset":{
		"generator":"Khronos glTF Blender I/O v4.1.62",
		"version":"2.0"
	},
	"extensionsUsed":[
		"KHR_lights_punctual"
	],
	"extensionsRequired":[
		"KHR_lights_punctual"
	],
	"extensions":{
		"KHR_lights_punctual":{
			"lights":[
				{
					"color":[
						1,
						1,
						1
					],
					"intensity":543.5141306588226,
					"spot":{
						"innerConeAngle":0.2085700974143947,
						"outerConeAngle":0.2453765869140625
					},
					"type":"spot",
					"name":"Spot"
				},
				{
					"color":[
						1,
						1,
						1
					],
					"intensity":683,
					"type":"directional",
					"name":"Sun"
				}
			]
		}
	},
	"scene":0,
	"scenes":[
		{
			"name":"Scene",
			"nodes":[
				0,
				1,
				2,
				3,
				4,
				5,
				6,
				7,
				8,
				9,
				10,
				11,
				12,
				13,
				14
			]
		}
	],
	"nodes":[
		{
			"mesh":0,
			"name":"Curve.006",
			"rotation":[
				0.7185847163200378,
				0,
				0,
				0.6954394578933716
			],
			"translation":[
				0.0006181696662679315,
				0,
				0
			]
		},
		{
			"mesh":1,
			"name":"Curve.008",
			"rotation":[
				0.7185847163200378,
				0,
				0,
				0.6954394578933716
			],
			"translation":[
				0.0006181696662679315,
				0,
				0
			]
		},
		{
			"mesh":2,
			"name":"Curve.009",
			"rotation":[
				0.7185847163200378,
				0,
				0,
				0.6954394578933716
			],
			"translation":[
				0.0006181696662679315,
				0,
				0
			]
		},
		{
			"mesh":3,
			"name":"Curve.012",
			"rotation":[
				0.7185847163200378,
				0,
				0,
				0.6954394578933716
			],
			"translation":[
				0.0006181696662679315,
				0,
				0
			]
		},
		{
			"mesh":4,
			"name":"Curve.015",
			"rotation":[
				0.7185847163200378,
				0,
				0,
				0.6954394578933716
			],
			"translation":[
				0.0006181696662679315,
				0,
				0
			]
		},
		{
			"mesh":5,
			"name":"Curve.016",
			"rotation":[
				0.7185847163200378,
				0,
				0,
				0.6954394578933716
			],
			"translation":[
				0.0006181696662679315,
				0,
				0
			]
		},
		{
			"extensions":{
				"KHR_lights_punctual":{
					"light":0
				}
			},
			"name":"Spot",
			"rotation":[
				-0.1068587601184845,
				-0.036747612059116364,
				-0.1246647760272026,
				0.9857431054115295
			],
			"translation":[
				0.039039239287376404,
				0.41237884759902954,
				0.972882866859436
			]
		},
		{
			"extensions":{
				"KHR_lights_punctual":{
					"light":1
				}
			},
			"name":"Sun",
			"rotation":[
				-0.1175251379609108,
				-0.020886922255158424,
				0.020886924117803574,
				0.9926305413246155
			],
			"translation":[
				0,
				0.35235869884490967,
				0.4706203043460846
			]
		},
		{
			"mesh":6,
			"name":"Curve.002",
			"rotation":[
				0.7185847163200378,
				0,
				0,
				0.6954394578933716
			]
		},
		{
			"mesh":7,
			"name":"Curve.003",
			"rotation":[
				0.7185847163200378,
				0,
				0,
				0.6954394578933716
			]
		},
		{
			"mesh":8,
			"name":"Curve.005",
			"rotation":[
				0.7185847163200378,
				0,
				0,
				0.6954394578933716
			]
		},
		{
			"mesh":9,
			"name":"Curve.007",
			"rotation":[
				0.7185847163200378,
				0,
				0,
				0.6954394578933716
			]
		},
		{
			"mesh":10,
			"name":"Curve.036",
			"rotation":[
				0.7185847163200378,
				0,
				0,
				0.6954394578933716
			]
		},
		{
			"mesh":11,
			"name":"Curve.037",
			"rotation":[
				0.7185847163200378,
				0,
				0,
				0.6954394578933716
			]
		},
		{
			"mesh":12,
			"name":"Curve.038",
			"rotation":[
				0.7185847163200378,
				0,
				0,
				0.6954394578933716
			]
		}
	],
	"materials":[
		{
			"doubleSided":true,
			"name":"SVGMat.001",
			"pbrMetallicRoughness":{
				"baseColorFactor":[
					0.4735288619995117,
					0.2788946032524109,
					0.029556920751929283,
					1
				],
				"metallicFactor":0,
				"roughnessFactor":0.5
			}
		},
		{
			"doubleSided":true,
			"name":"SVGMat",
			"pbrMetallicRoughness":{
				"baseColorFactor":[
					0.004024408292025328,
					0.17144130170345306,
					0.22696596384048462,
					1
				],
				"metallicFactor":0,
				"roughnessFactor":0.5
			}
		}
	],
	"meshes":[
		{
			"name":"Curve.039",
			"primitives":[
				{
					"attributes":{
						"POSITION":0,
						"NORMAL":1,
						"TEXCOORD_0":2
					},
					"indices":3,
					"material":0
				}
			]
		},
		{
			"name":"Curve.040",
			"primitives":[
				{
					"attributes":{
						"POSITION":4,
						"NORMAL":5,
						"TEXCOORD_0":6
					},
					"indices":7,
					"material":0
				}
			]
		},
		{
			"name":"Curve.041",
			"primitives":[
				{
					"attributes":{
						"POSITION":8,
						"NORMAL":9,
						"TEXCOORD_0":10
					},
					"indices":11,
					"material":0
				}
			]
		},
		{
			"name":"Curve.044",
			"primitives":[
				{
					"attributes":{
						"POSITION":12,
						"NORMAL":13,
						"TEXCOORD_0":14
					},
					"indices":15,
					"material":0
				}
			]
		},
		{
			"name":"Curve.047",
			"primitives":[
				{
					"attributes":{
						"POSITION":16,
						"NORMAL":17,
						"TEXCOORD_0":18
					},
					"indices":19,
					"material":0
				}
			]
		},
		{
			"name":"Curve.048",
			"primitives":[
				{
					"attributes":{
						"POSITION":20,
						"NORMAL":21,
						"TEXCOORD_0":22
					},
					"indices":23,
					"material":0
				}
			]
		},
		{
			"name":"Curve.002",
			"primitives":[
				{
					"attributes":{
						"POSITION":24,
						"NORMAL":25,
						"TEXCOORD_0":26
					},
					"indices":27,
					"material":1
				}
			]
		},
		{
			"name":"Curve.003",
			"primitives":[
				{
					"attributes":{
						"POSITION":28,
						"NORMAL":29,
						"TEXCOORD_0":30
					},
					"indices":31,
					"material":1
				}
			]
		},
		{
			"name":"Curve.005",
			"primitives":[
				{
					"attributes":{
						"POSITION":32,
						"NORMAL":33,
						"TEXCOORD_0":34
					},
					"indices":35,
					"material":1
				}
			]
		},
		{
			"name":"Curve.007",
			"primitives":[
				{
					"attributes":{
						"POSITION":36,
						"NORMAL":37,
						"TEXCOORD_0":38
					},
					"indices":39,
					"material":1
				}
			]
		},
		{
			"name":"Curve.036",
			"primitives":[
				{
					"attributes":{
						"POSITION":40,
						"NORMAL":41,
						"TEXCOORD_0":42
					},
					"indices":11,
					"material":1
				}
			]
		},
		{
			"name":"Curve.037",
			"primitives":[
				{
					"attributes":{
						"POSITION":43,
						"NORMAL":44,
						"TEXCOORD_0":45
					},
					"indices":7,
					"material":1
				}
			]
		},
		{
			"name":"Curve.038",
			"primitives":[
				{
					"attributes":{
						"POSITION":46,
						"NORMAL":47,
						"TEXCOORD_0":48
					},
					"indices":3,
					"material":1
				}
			]
		}
	],
	"accessors":[
		{
			"bufferView":0,
			"componentType":5126,
			"count":24,
			"max":[
				0.08247549086809158,
				0,
				-0.20368042588233948
			],
			"min":[
				0.08195336908102036,
				0,
				-0.20457491278648376
			],
			"type":"VEC3"
		},
		{
			"bufferView":1,
			"componentType":5126,
			"count":24,
			"type":"VEC3"
		},
		{
			"bufferView":2,
			"componentType":5126,
			"count":24,
			"type":"VEC2"
		},
		{
			"bufferView":3,
			"componentType":5123,
			"count":66,
			"type":"SCALAR"
		},
		{
			"bufferView":4,
			"componentType":5126,
			"count":24,
			"max":[
				0.10047316551208496,
				0,
				-0.11781094968318939
			],
			"min":[
				0.10026713460683823,
				0,
				-0.11802822351455688
			],
			"type":"VEC3"
		},
		{
			"bufferView":5,
			"componentType":5126,
			"count":24,
			"type":"VEC3"
		},
		{
			"bufferView":6,
			"componentType":5126,
			"count":24,
			"type":"VEC2"
		},
		{
			"bufferView":7,
			"componentType":5123,
			"count":66,
			"type":"SCALAR"
		},
		{
			"bufferView":8,
			"componentType":5126,
			"count":24,
			"max":[
				0.10006111860275269,
				0,
				-0.11824549734592438
			],
			"min":[
				0.09969139844179153,
				0,
				-0.11870543658733368
			],
			"type":"VEC3"
		},
		{
			"bufferView":9,
			"componentType":5126,
			"count":24,
			"type":"VEC3"
		},
		{
			"bufferView":10,
			"componentType":5126,
			"count":24,
			"type":"VEC2"
		},
		{
			"bufferView":11,
			"componentType":5123,
			"count":66,
			"type":"SCALAR"
		},
		{
			"bufferView":12,
			"componentType":5126,
			"count":1648,
			"max":[
				0.10590922832489014,
				0.009999999776482582,
				-0.17144514620304108
			],
			"min":[
				0.07388817518949509,
				-0.009999999776482582,
				-0.25265076756477356
			],
			"type":"VEC3"
		},
		{
			"bufferView":13,
			"componentType":5126,
			"count":1648,
			"type":"VEC3"
		},
		{
			"bufferView":14,
			"componentType":5126,
			"count":1648,
			"type":"VEC2"
		},
		{
			"bufferView":15,
			"componentType":5123,
			"count":4884,
			"type":"SCALAR"
		},
		{
			"bufferView":16,
			"componentType":5126,
			"count":1892,
			"max":[
				0.15135827660560608,
				0.009999999776482582,
				-0.12587815523147583
			],
			"min":[
				0.08283818513154984,
				-0.009999999776482582,
				-0.281903475522995
			],
			"type":"VEC3"
		},
		{
			"bufferView":17,
			"componentType":5126,
			"count":1892,
			"type":"VEC3"
		},
		{
			"bufferView":18,
			"componentType":5126,
			"count":1892,
			"type":"VEC2"
		},
		{
			"bufferView":19,
			"componentType":5123,
			"count":5604,
			"type":"SCALAR"
		},
		{
			"bufferView":20,
			"componentType":5126,
			"count":12546,
			"max":[
				0.14147132635116577,
				0.009999999776482582,
				-0.08408449590206146
			],
			"min":[
				0.037987180054187775,
				-0.009999999776482582,
				-0.1741006225347519
			],
			"type":"VEC3"
		},
		{
			"bufferView":21,
			"componentType":5126,
			"count":12546,
			"type":"VEC3"
		},
		{
			"bufferView":22,
			"componentType":5126,
			"count":12546,
			"type":"VEC2"
		},
		{
			"bufferView":23,
			"componentType":5123,
			"count":37596,
			"type":"SCALAR"
		},
		{
			"bufferView":24,
			"componentType":5126,
			"count":2478,
			"max":[
				0.09711753576993942,
				0.009999999776482582,
				-0.12719443440437317
			],
			"min":[
				0.05524154007434845,
				-0.009999999776482582,
				-0.22296100854873657
			],
			"type":"VEC3"
		},
		{
			"bufferView":25,
			"componentType":5126,
			"count":2478,
			"type":"VEC3"
		},
		{
			"bufferView":26,
			"componentType":5126,
			"count":2478,
			"type":"VEC2"
		},
		{
			"bufferView":27,
			"componentType":5123,
			"count":7428,
			"type":"SCALAR"
		},
		{
			"bufferView":28,
			"componentType":5126,
			"count":1106,
			"max":[
				0.07809803634881973,
				0.009999999776482582,
				-0.09714211523532867
			],
			"min":[
				0.044159963726997375,
				-0.009999999776482582,
				-0.17914307117462158
			],
			"type":"VEC3"
		},
		{
			"bufferView":29,
			"componentType":5126,
			"count":1106,
			"type":"VEC3"
		},
		{
			"bufferView":30,
			"componentType":5126,
			"count":1106,
			"type":"VEC2"
		},
		{
			"bufferView":31,
			"componentType":5123,
			"count":3300,
			"type":"SCALAR"
		},
		{
			"bufferView":32,
			"componentType":5126,
			"count":626,
			"max":[
				0.11941166967153549,
				0.009999999776482582,
				-0.20830251276493073
			],
			"min":[
				0.10382886230945587,
				-0.009999999776482582,
				-0.27444544434547424
			],
			"type":"VEC3"
		},
		{
			"bufferView":33,
			"componentType":5126,
			"count":626,
			"type":"VEC3"
		},
		{
			"bufferView":34,
			"componentType":5126,
			"count":626,
			"type":"VEC2"
		},
		{
			"bufferView":35,
			"componentType":5123,
			"count":1860,
			"type":"SCALAR"
		},
		{
			"bufferView":36,
			"componentType":5126,
			"count":689,
			"max":[
				0.12028184533119202,
				0.009999999776482582,
				-0.14582103490829468
			],
			"min":[
				0.10736129432916641,
				-0.009999999776482582,
				-0.19321736693382263
			],
			"type":"VEC3"
		},
		{
			"bufferView":37,
			"componentType":5126,
			"count":689,
			"type":"VEC3"
		},
		{
			"bufferView":38,
			"componentType":5126,
			"count":689,
			"type":"VEC2"
		},
		{
			"bufferView":39,
			"componentType":5123,
			"count":1980,
			"type":"SCALAR"
		},
		{
			"bufferView":40,
			"componentType":5126,
			"count":24,
			"max":[
				0.10006111860275269,
				0,
				-0.11824549734592438
			],
			"min":[
				0.09969139844179153,
				0,
				-0.11870543658733368
			],
			"type":"VEC3"
		},
		{
			"bufferView":41,
			"componentType":5126,
			"count":24,
			"type":"VEC3"
		},
		{
			"bufferView":42,
			"componentType":5126,
			"count":24,
			"type":"VEC2"
		},
		{
			"bufferView":43,
			"componentType":5126,
			"count":24,
			"max":[
				0.10047316551208496,
				0,
				-0.11781094968318939
			],
			"min":[
				0.10026713460683823,
				0,
				-0.11802822351455688
			],
			"type":"VEC3"
		},
		{
			"bufferView":44,
			"componentType":5126,
			"count":24,
			"type":"VEC3"
		},
		{
			"bufferView":45,
			"componentType":5126,
			"count":24,
			"type":"VEC2"
		},
		{
			"bufferView":46,
			"componentType":5126,
			"count":24,
			"max":[
				0.08247549086809158,
				0,
				-0.20368042588233948
			],
			"min":[
				0.08195336908102036,
				0,
				-0.20457491278648376
			],
			"type":"VEC3"
		},
		{
			"bufferView":47,
			"componentType":5126,
			"count":24,
			"type":"VEC3"
		},
		{
			"bufferView":48,
			"componentType":5126,
			"count":24,
			"type":"VEC2"
		}
	],
	"bufferViews":[
		{
			"buffer":0,
			"byteLength":288,
			"byteOffset":0,
			"target":34962
		},
		{
			"buffer":0,
			"byteLength":288,
			"byteOffset":288,
			"target":34962
		},
		{
			"buffer":0,
			"byteLength":192,
			"byteOffset":576,
			"target":34962
		},
		{
			"buffer":0,
			"byteLength":132,
			"byteOffset":768,
			"target":34963
		},
		{
			"buffer":0,
			"byteLength":288,
			"byteOffset":900,
			"target":34962
		},
		{
			"buffer":0,
			"byteLength":288,
			"byteOffset":1188,
			"target":34962
		},
		{
			"buffer":0,
			"byteLength":192,
			"byteOffset":1476,
			"target":34962
		},
		{
			"buffer":0,
			"byteLength":132,
			"byteOffset":1668,
			"target":34963
		},
		{
			"buffer":0,
			"byteLength":288,
			"byteOffset":1800,
			"target":34962
		},
		{
			"buffer":0,
			"byteLength":288,
			"byteOffset":2088,
			"target":34962
		},
		{
			"buffer":0,
			"byteLength":192,
			"byteOffset":2376,
			"target":34962
		},
		{
			"buffer":0,
			"byteLength":132,
			"byteOffset":2568,
			"target":34963
		},
		{
			"buffer":0,
			"byteLength":19776,
			"byteOffset":2700,
			"target":34962
		},
		{
			"buffer":0,
			"byteLength":19776,
			"byteOffset":22476,
			"target":34962
		},
		{
			"buffer":0,
			"byteLength":13184,
			"byteOffset":42252,
			"target":34962
		},
		{
			"buffer":0,
			"byteLength":9768,
			"byteOffset":55436,
			"target":34963
		},
		{
			"buffer":0,
			"byteLength":22704,
			"byteOffset":65204,
			"target":34962
		},
		{
			"buffer":0,
			"byteLength":22704,
			"byteOffset":87908,
			"target":34962
		},
		{
			"buffer":0,
			"byteLength":15136,
			"byteOffset":110612,
			"target":34962
		},
		{
			"buffer":0,
			"byteLength":11208,
			"byteOffset":125748,
			"target":34963
		},
		{
			"buffer":0,
			"byteLength":150552,
			"byteOffset":136956,
			"target":34962
		},
		{
			"buffer":0,
			"byteLength":150552,
			"byteOffset":287508,
			"target":34962
		},
		{
			"buffer":0,
			"byteLength":100368,
			"byteOffset":438060,
			"target":34962
		},
		{
			"buffer":0,
			"byteLength":75192,
			"byteOffset":538428,
			"target":34963
		},
		{
			"buffer":0,
			"byteLength":29736,
			"byteOffset":613620,
			"target":34962
		},
		{
			"buffer":0,
			"byteLength":29736,
			"byteOffset":643356,
			"target":34962
		},
		{
			"buffer":0,
			"byteLength":19824,
			"byteOffset":673092,
			"target":34962
		},
		{
			"buffer":0,
			"byteLength":14856,
			"byteOffset":692916,
			"target":34963
		},
		{
			"buffer":0,
			"byteLength":13272,
			"byteOffset":707772,
			"target":34962
		},
		{
			"buffer":0,
			"byteLength":13272,
			"byteOffset":721044,
			"target":34962
		},
		{
			"buffer":0,
			"byteLength":8848,
			"byteOffset":734316,
			"target":34962
		},
		{
			"buffer":0,
			"byteLength":6600,
			"byteOffset":743164,
			"target":34963
		},
		{
			"buffer":0,
			"byteLength":7512,
			"byteOffset":749764,
			"target":34962
		},
		{
			"buffer":0,
			"byteLength":7512,
			"byteOffset":757276,
			"target":34962
		},
		{
			"buffer":0,
			"byteLength":5008,
			"byteOffset":764788,
			"target":34962
		},
		{
			"buffer":0,
			"byteLength":3720,
			"byteOffset":769796,
			"target":34963
		},
		{
			"buffer":0,
			"byteLength":8268,
			"byteOffset":773516,
			"target":34962
		},
		{
			"buffer":0,
			"byteLength":8268,
			"byteOffset":781784,
			"target":34962
		},
		{
			"buffer":0,
			"byteLength":5512,
			"byteOffset":790052,
			"target":34962
		},
		{
			"buffer":0,
			"byteLength":3960,
			"byteOffset":795564,
			"target":34963
		},
		{
			"buffer":0,
			"byteLength":288,
			"byteOffset":799524,
			"target":34962
		},
		{
			"buffer":0,
			"byteLength":288,
			"byteOffset":799812,
			"target":34962
		},
		{
			"buffer":0,
			"byteLength":192,
			"byteOffset":800100,
			"target":34962
		},
		{
			"buffer":0,
			"byteLength":288,
			"byteOffset":800292,
			"target":34962
		},
		{
			"buffer":0,
			"byteLength":288,
			"byteOffset":800580,
			"target":34962
		},
		{
			"buffer":0,
			"byteLength":192,
			"byteOffset":800868,
			"target":34962
		},
		{
			"buffer":0,
			"byteLength":288,
			"byteOffset":801060,
			"target":34962
		},
		{
			"buffer":0,
			"byteLength":288,
			"byteOffset":801348,
			"target":34962
		},
		{
			"buffer":0,
			"byteLength":192,
			"byteOffset":801636,
			"target":34962
		}
	],
	"buffers":[
		{
			"byteLength":801828,
			"uri":"logo.bin"
		}
	]
}
